<?xml version="1.0" standalone="no"?>
<!DOCTYPE svg PUBLIC "-//W3C//DTD SVG 1.1//EN" "http://www.w3.org/Graphics/SVG/1.1/DTD/svg11.dtd" >
<svg xmlns="http://www.w3.org/2000/svg">
<metadata></metadata>
<defs>
<font id="hipstelveticaultralight" horiz-adv-x="1177" >
<font-face units-per-em="2048" ascent="1462" descent="-586" />
<missing-glyph horiz-adv-x="569" />
<glyph horiz-adv-x="0" />
<glyph unicode="&#xd;" horiz-adv-x="569" />
<glyph horiz-adv-x="0" />
<glyph horiz-adv-x="0" />
<glyph unicode=" "  horiz-adv-x="569" />
<glyph unicode="&#x09;" horiz-adv-x="569" />
<glyph unicode="&#xa0;" horiz-adv-x="569" />
<glyph unicode="!" horiz-adv-x="378" d="M129 0v121h121v-121h-121zM170 373v467l41 20v-487h-41zM170 975v489h41v-469z" />
<glyph unicode="+" horiz-adv-x="1228" d="M98 498v41h428l-77 -41h-351zM594 0v440l41 21v-461h-41zM594 575v463h41v-442zM707 498l79 41h347v-41h-426z" />
<glyph unicode="," horiz-adv-x="569" d="M184 0v121h80h41v-121q0 -92 -18 -150q-23 -57 -72 -92v41q27 27 39 74q10 51 10 127h-80zM184 483v121h121v-121h-121z" />
<glyph unicode="-" horiz-adv-x="681" d="M162 528v41h31h104l-78 -41h-26h-31zM391 528l80 41h6h43v-41h-43h-86z" />
<glyph unicode="." horiz-adv-x="569" d="M223 0v121h121v-121h-121zM223 483v121h121v-121h-121z" />
<glyph unicode="/" horiz-adv-x="681" d="M-14 -35l293 668l51 26l-305 -694h-39zM350 799l305 698h41l-295 -670z" />
<glyph unicode="0" horiz-adv-x="1138" d="M41 696q0 135 27 260q25 131 86 232q59 102 163 168q104 63 252 63q147 0 252 -63q100 -63 162 -168q59 -99 88 -232q25 -129 25 -260t-25 -260q-29 -131 -88 -233q-63 -104 -162 -164q-100 -63 -252 -64q-152 0 -252 64q-102 61 -163 164q-61 104 -86 233 q-27 125 -27 260zM82 696q0 -59 6 -118.5t16 -120.5q12 -59 31 -114.5t47 -104.5q53 -94 150 -162q92 -61 237 -62q141 0 238 62q92 66 147 162q49 88 74 196l-928 475q-18 -109 -18 -213zM109 954l925 -483q10 57 15.5 113.5t5.5 111.5q0 59 -5.5 117.5t-17.5 120.5 q-20 119 -78 219q-55 96 -147 162q-96 61 -238 61q-145 0 -237 -61q-96 -68 -150 -162q-49 -88 -73 -199z" />
<glyph unicode="1" horiz-adv-x="1138" d="M233 895v41q33 10 62 21.5t53 23.5q49 25 92 55q43 31 82 70q20 20 41 41.5t43 46.5h4v147h-4q-61 -86 -166 -151q-51 -33 -102 -56.5t-105 -37.5v41q33 10 62 21t53 24q49 25 92 55q43 31 82 70q20 20 41 41.5t43 46.5h45v-1395h-41v1141h-4q-33 -45 -73.5 -82 t-92.5 -72q-102 -66 -207 -92z" />
<glyph unicode="2" horiz-adv-x="1138" d="M113 0q-4 88 37 160q39 72 102 135q33 31 67.5 60.5t75.5 58.5t79 56.5t77 55.5q41 29 80 56.5t78 56.5q37 29 70.5 58.5t64.5 60.5q29 33 53.5 65.5t40.5 67.5q37 70 37 153q0 82 -31 144q-27 63 -80 106q-27 20 -57.5 37t-65.5 27q-68 20 -155 20q-109 0 -187 -32 q-82 -35 -127 -91q-51 -59 -71 -141q-23 -84 -23 -176h-41q4 233 115 356q111 125 334 125q47 0 88 -6t82 -16q74 -25 135 -72q55 -43 90 -117t35 -164q0 -117 -62 -208q-63 -100 -155 -177q-88 -80 -203 -155q-53 -37 -104.5 -73t-98.5 -73t-88 -73.5t-76 -75.5q0 -2 -1 -2 t-1 -2h826v-41h-856q-37 -59 -43 -123h899v-41h-940z" />
<glyph unicode="3" horiz-adv-x="1138" d="M80 471h41q-8 -109 22 -197q31 -84 93 -143q23 -20 51 -39l723 379q-4 18 -9.5 34.5t-11.5 33.5q-31 63 -84 104q-55 39 -129 62q-70 20 -158 24h-100v41h100q63 0 134 16q72 16 120 52q51 33 86 94q33 57 33 143q-4 86 -37 142q-33 55 -90 94q-29 16 -59.5 29.5 t-65.5 21.5q-66 14 -143 14q-102 0 -182 -24q-41 -14 -76 -33t-64 -45q-59 -55 -86 -131q-31 -80 -28 -182h-41q-4 115 31 200q35 86 96 142q61 57 151 86q84 29 199 28q82 0 162 -18q76 -18 139 -60q59 -39 98 -106q37 -66 37 -158q0 -150 -84 -229q-84 -82 -215 -94v-4 q59 -6 119 -31q29 -10 56.5 -27.5t49.5 -40.5q45 -42 74 -108q27 -66 27 -158q0 -98 -37 -174q-20 -37 -45 -68.5t-57 -58.5q-70 -53 -152 -80q-41 -12 -87 -19.5t-93 -7.5q-59 0 -113.5 8.5t-103.5 24.5q-100 35 -164 96q-68 61 -101 156q-35 96 -26 211zM326 70 q14 -6 29.5 -13.5t31.5 -11.5q92 -31 201 -31q82 0 162 25q76 20 137 70q59 50 96 116q35 70 35 160v20.5t-2 20.5z" />
<glyph unicode="4" horiz-adv-x="1138" d="M70 362v50l696 983h51v-992h254v-41h-254v-362h-41v362h-123v-362h-41v362h-542zM111 403h501v711zM653 403h123v934h-4l-119 -166v-768z" />
<glyph unicode="5" horiz-adv-x="1138" d="M74 446h41q-4 -106 28 -184q31 -82 88 -135q16 -14 32 -26.5t34 -22.5l702 368v17q0 96 -30 176q-16 41 -39 76t-51 65q-51 55 -140 90q-80 33 -180 33q-121 0 -227 -53q-106 -57 -162 -160h-53l151 703h715v-41h-682l-127 -596h4q57 96 158 143q98 45 223 45 q106 0 197 -37q90 -35 151 -98q64 -66 99 -154q35 -84 34 -192q0 -57 -8 -106.5t-26 -96.5q-35 -90 -99 -154q-63 -63 -151 -96q-92 -35 -197 -35q-109 0 -199 33q-90 31 -155 90q-63 59 -101 148q-35 86 -30 200zM338 57q10 -4 18.5 -7t18.5 -7q86 -29 184 -29 q104 0 184 33q83 31 138 90q57 57 88 142q10 29 17 57.5t11 58.5z" />
<glyph unicode="6" horiz-adv-x="1138" d="M80 657q0 129 24 265q25 133 84 245q61 111 162 181q100 70 254 69q92 0 166 -26q70 -27 129 -76q55 -47 92 -111q33 -61 45 -139h-41q-20 92 -65 156q-45 59 -101 94q-57 35 -114 49q-59 12 -113 12q-156 0 -252 -78q-96 -76 -149 -196q-53 -121 -68 -256 q-10 -70 -13 -134.5t-1 -123.5h4q6 37 20.5 70.5t34.5 66.5q47 66 103 111q59 47 137 75q78 27 160 27q47 0 90 -9t88 -26q86 -35 153 -98q35 -33 61.5 -71t49.5 -81q41 -92 41 -196q0 -53 -10.5 -101.5t-28.5 -93.5q-41 -90 -107 -151q-35 -31 -72.5 -56.5t-80.5 -42.5 q-90 -37 -184 -37q-72 0 -134 19q-61 16 -114 49q-27 16 -49.5 33.5t-42.5 36.5q-43 43 -66 80q-59 90 -76 210q-10 59 -13 123t-3 131zM137 436q2 -78 35 -151q35 -82 94 -142q55 -55 140 -94q82 -35 172 -35t172 35q84 39 139 94q31 31 54.5 66t41.5 76q29 68 33 151h-881 zM137 477h881q-4 84 -33 152q-18 41 -41.5 75.5t-54.5 63.5q-61 61 -139 94q-82 35 -172 35t-172 -35q-79 -33 -140 -94q-59 -55 -94 -139q-33 -74 -35 -152z" />
<glyph unicode="7" horiz-adv-x="1138" d="M125 1190v41h727l117 123h-844v41h889v-56q-72 -72 -135.5 -143.5t-122.5 -146.5q-115 -147 -199 -314q-41 -82 -72.5 -167t-54.5 -177q-45 -178 -45 -391h-41q-2 201 41 389q23 94 54.5 181t72.5 171q82 166 201 320q49 63 104 129h-692z" />
<glyph unicode="8" horiz-adv-x="1138" d="M63 387q0 160 97 260q92 98 260 117v4q-53 6 -111 33q-55 29 -92 63q-41 41 -61 90q-23 55 -23 111q0 98 35 162q35 66 92 108q61 45 139 64q80 18 170 18q92 0 172 -18q41 -10 75 -25.5t65 -38.5q57 -43 92 -108q35 -70 35 -162q0 -55 -23 -111q-20 -49 -61 -90 q-37 -35 -93 -63q-57 -27 -110 -33v-4q168 -19 260 -117q96 -100 96 -260q0 -104 -41 -186q-41 -78 -110 -127q-68 -53 -160 -74q-92 -25 -197 -25q-102 0 -194 25q-92 20 -160 74q-70 49 -111 127q-41 82 -41 186zM104 358q6 -82 39 -141q37 -72 103 -115q63 -47 147 -67 q43 -10 86 -15.5t90 -5.5t91.5 5.5t87.5 15.5q81 20 147 67q66 43 102 115q33 59 39 141h-932zM104 399h932q-4 94 -39 158q-41 70 -104 109q-68 41 -148 59q-43 8 -86 12t-90 4q-45 0 -88 -4t-86 -12q-79 -18 -147 -59q-63 -39 -105 -109q-35 -63 -39 -158zM174 1059 q0 -72 37 -123q37 -55 92 -88t127 -49q35 -10 70 -13.5t69 -3.5q35 0 71 3t71 14q72 16 127 49t92 88q18 27 26.5 57.5t10.5 65.5h-793zM176 1100h789q-2 66 -33 114q-35 61 -88 97q-59 37 -127 51q-66 14 -148 14q-37 0 -73.5 -3t-71.5 -11q-68 -14 -127 -51 q-53 -35 -88 -97q-31 -49 -33 -114z" />
<glyph unicode="9" horiz-adv-x="1138" d="M78 936q0 106 39 192q39 88 106 152q35 35 73 59.5t81 42.5q88 35 184 35q72 0 133 -18q63 -20 115 -51q49 -29 90 -70q23 -20 38 -39.5t30 -40.5q63 -94 77 -211q8 -59 12.5 -121.5t4.5 -132.5q0 -133 -25 -264q-25 -133 -84 -244q-59 -109 -164 -180q-104 -70 -253 -70 q-47 0 -88 7.5t-78 19.5q-78 29 -131 74q-53 47 -91 112q-33 61 -45 138h41q23 -96 66 -154q41 -57 98 -96q57 -35 117 -47q57 -14 113 -15q102 0 180 37q78 35 131 96q57 63 90 142q16 41 29.5 83t23.5 87q18 86 25 176q4 45 5 87t-1 83h-4q-14 -72 -58 -137 q-37 -61 -102 -113q-55 -47 -135 -76q-39 -12 -79 -19t-81 -7q-90 0 -178 34q-90 39 -156 99q-63 61 -108 153q-41 92 -41 197zM119 915q6 -86 35 -151q37 -82 94 -141q61 -57 139 -95q86 -35 174 -34q90 0 172 34q84 40 139 95q61 66 95 141q33 74 34 151h-882zM119 956 h882q-2 78 -34 152q-33 78 -95 139q-61 61 -139 94q-82 35 -172 35q-88 0 -174 -35q-41 -16 -74.5 -40.5t-64.5 -53.5q-55 -55 -94 -139q-16 -35 -23.5 -73t-11.5 -79z" />
<glyph unicode=":" horiz-adv-x="569" d="M225 0v121h121v-121h-121zM225 483v121h121v-121h-121zM225 967v120h121v-120h-121z" />
<glyph unicode=";" horiz-adv-x="569" d="M225 0v121h80h41v-119v-2q0 -92 -18 -150q-23 -57 -72 -92v41q27 27 39 74q10 51 10 127h-80zM225 483v121h121v-121h-121zM225 967v120h121v-120h-121z" />
<glyph unicode="=" horiz-adv-x="1228" d="M98 696v41h858l-79 -41h-779zM279 299l79 41h775v-41h-854z" />
<glyph unicode="?" horiz-adv-x="1024" d="M72 1012q-6 109 24 198q27 88 86 154q29 33 65 57.5t77 42.5q82 35 192 35q41 0 81 -5t77 -17q74 -20 127 -66q55 -43 86 -106q33 -59 33 -146q0 -76 -23 -137q-23 -59 -53 -102q-29 -41 -66 -74q-18 -16 -32.5 -29.5t-26.5 -23.5l-52.5 -52.5t-41.5 -46.5 q-37 -39 -64 -90q-23 -49 -35 -102q-4 -29 -7 -60.5t-3 -68.5h-41q0 35 2 65.5t8 59.5q4 29 12.5 55.5t20.5 50.5q23 53 62 101q35 45 96 104q10 10 45 39t67 70q37 43 60 94l-633 329l-6 -6q-51 -57 -76 -141q-27 -88 -20 -182h-41zM244 1370l618 -317q16 53 17 106 q0 68 -29 129q-27 55 -76 94t-115 58q-66 18 -143 18q-104 0 -178 -33q-55 -23 -94 -55zM434 0v121h121v-121h-121z" />
<glyph unicode="A" d="M-25 0l592 1464h54l579 -1464h-45l-940 481l-195 -481h-45zM231 522l899 -469l-534 1370h-4z" />
<glyph unicode="B" horiz-adv-x="1251" d="M96 0v1464h631q43 0 83 -5t77 -17q76 -20 131 -68q29 -23 51.5 -51.5t38.5 -62.5q31 -68 31 -160q0 -63 -23 -125q-25 -59 -65 -105q-41 -47 -99 -73q-55 -29 -123 -31v-4q68 -2 136 -29q63 -25 114 -71q23 -23 42.5 -50.5t33.5 -62.5q29 -70 29 -152q0 -94 -35 -174 q-37 -76 -100 -123q-61 -47 -154 -75q-90 -25 -193 -25h-606zM137 41h584q92 0 166 20q76 20 133 66q55 43 90 111q33 66 33 157q0 96 -35 162t-96 107q-29 23 -61.5 37t-71.5 24q-74 18 -152 18l-590 301v-1003zM137 1085l590 -301q74 0 139 19q63 18 119 59q51 39 82 101 q31 57 31 137q0 82 -29 145q-29 61 -80 101q-45 37 -117 59q-68 18 -145 18h-590v-338z" />
<glyph unicode="C" horiz-adv-x="1402" d="M49 719q0 66 10.5 133.5t28.5 136.5q37 135 121 252q80 113 213 184q125 72 317 72q143 0 254 -47q55 -25 100.5 -55.5t82.5 -65.5q74 -74 110 -155q35 -80 39 -150h-41q-6 76 -47 156q-41 78 -113 139q-70 59 -168 100q-98 37 -217 37q-178 0 -305 -72 q-125 -76 -198 -182q-78 -111 -111 -239q-35 -133 -35 -244q0 -78 12 -148l928 -483q29 16 52.5 35.5t45.5 42.5q76 76 125 180q45 100 64 225h41q-10 -66 -27.5 -127t-42.5 -116q-51 -111 -133 -193t-192 -125q-109 -45 -250 -45q-145 0 -269 55q-59 29 -112 68t-96 88 q-43 51 -78 110.5t-60 129.5q-49 137 -49 303zM113 516l18 -67q23 -66 52.5 -122.5t70.5 -105.5q80 -98 195 -158q113 -59 264 -59q131 0 235 43l43 19z" />
<glyph unicode="D" horiz-adv-x="1327" d="M111 0v1464h512q115 0 221 -32q111 -33 200 -117q47 -41 83 -97t65 -128q55 -141 55 -357q0 -199 -57 -338q-59 -139 -154 -227q-96 -88 -219 -127q-61 -23 -125.5 -32t-132.5 -9h-448zM152 41h417q127 0 246 41q115 43 203 127q86 84 139 217q47 123 49 287h-1054v-672z M152 754h1054q-4 195 -51 317q-53 133 -135 213q-84 78 -191 109q-101 30 -210 30h-7h-460v-669z" />
<glyph unicode="E" horiz-adv-x="1099" d="M111 0v1464h972v-41h-931v-579h876v-41h-876v-19v-41v-63h876v-41h-876v-598h940v-41h-981z" />
<glyph unicode="F" horiz-adv-x="985" d="M111 0v1464h903v-41h-862v-579h780v-41h-780v-19v-41v-63h780v-41h-780v-639h-41z" />
<glyph unicode="G" horiz-adv-x="1478" d="M66 731q0 80 11 155t36 146q47 139 135 244q86 100 215 164q131 59 289 59q63 0 118.5 -9t108.5 -26q109 -39 182 -100q80 -63 131 -156q49 -90 68 -202h-41q-18 102 -68 186q-45 82 -121 141q-70 59 -167 92q-47 16 -99.5 24.5t-111.5 8.5q-78 0 -145.5 -14t-127.5 -43 q-117 -57 -205 -158q-82 -96 -124 -229q-43 -133 -44 -283q0 -76 9.5 -146.5t31.5 -135.5q41 -133 123 -232q82 -98 205 -156q59 -29 131 -43t152 -14q121 0 229 43q109 41 184 117q78 72 125 178q45 102 45 225v6h-567v41h567v117h-567v41h567h41v-41v-117v-96v-520h-41 v362h-4q-59 -186 -213 -290t-372 -105q-168 0 -297 62q-127 57 -215 163q-84 98 -131 244q-43 137 -43 297z" />
<glyph unicode="H" horiz-adv-x="1327" d="M111 0v1464h41v-620h1028v620h41v-1464h-41v639h-1028v-639h-41zM152 680h1028v123h-1028v-123z" />
<glyph unicode="I" horiz-adv-x="262" d="M111 0v659l41 21v-680h-41zM111 780v684h41v-661z" />
<glyph unicode="J" horiz-adv-x="948" d="M35 362v89h41v-89q0 -158 67 -243l643 336v1007h41v-1083q0 -94 -20 -168q-20 -72 -70 -131q-45 -53 -125 -86q-80 -29 -186 -29q-104 0 -180 29q-74 31 -121 84q-45 51 -68 125q-22 75 -22 152v7zM168 90q88 -86 258 -86q43 0 82 5t72 16q66 18 112 67q47 47 70 125 q24 73 24 180v9z" />
<glyph unicode="K" horiz-adv-x="1214" d="M111 0v1464h41l407 -532l608 532h64l-645 -565l686 -899h-55l-664 870l-401 -352v-518h-41zM152 573l376 330l-376 494v-824z" />
<glyph unicode="L" horiz-adv-x="985" d="M111 0v164v41v1259h41v-1259h858v-41h-858v-123h856v-41h-897z" />
<glyph unicode="M" horiz-adv-x="1597" d="M109 0v1466h69l621 -1185l622 1185h68v-1466h-41v1415h-4l-623 -1177l125 -238h-45l-102 195l-103 -195h-45l125 238l-620 1177h-4v-1415h-43z" />
<glyph unicode="N" horiz-adv-x="1327" d="M111 0v1466h41l1026 -1155v1155h41v-1466h-41l-1026 1155v-1155h-41zM152 1217l1026 -1156v187l-1026 1155v-186z" />
<glyph unicode="O" horiz-adv-x="1476" d="M66 731q0 156 43 295q45 137 129 244q84 102 213 168q125 61 288 61q164 0 291 -61q63 -33 116.5 -74t94.5 -94q86 -105 131 -244q43 -139 43 -295t-43 -297q-47 -141 -131 -244q-84 -104 -211 -163q-127 -61 -291 -62q-164 0 -288 62q-127 59 -213 163q-82 104 -129 244 q-43 141 -43 297zM106 707q6 -150 46 -269q47 -133 124 -229q41 -47 90.5 -85t108.5 -65q117 -55 264 -55q150 0 267 55q115 51 196 150q82 96 125 229q23 61 33 129t14 140h-1268zM106 748h1268q-2 145 -47 274q-45 137 -125 229q-78 94 -196 152q-117 55 -267 55 q-147 0 -264 -55q-119 -55 -199 -152q-77 -92 -124 -229q-20 -63 -31.5 -132t-14.5 -142z" />
<glyph unicode="P" horiz-adv-x="1175" d="M111 0v1466h594q209 0 327 -102q117 -98 117 -299q0 -100 -35 -172q-33 -70 -96 -125q-59 -47 -146 -76q-83 -24 -180 -24h-8l-532 274v-942h-41zM152 991l553 -282q82 0 159 22q76 25 129 70q29 23 48.5 51.5t35.5 60.5q31 63 31 152q0 174 -98 266q-104 94 -305 94 h-553v-434z" />
<glyph unicode="Q" horiz-adv-x="1476" d="M66 731q0 156 43 295q45 137 129 244q86 104 213 168q125 61 288 61q164 0 291 -61q63 -33 116.5 -74t94.5 -94q86 -104 131 -244q43 -139 43 -295q0 -172 -53 -328q-51 -152 -164 -260l236 -159l-21 -29l-242 162q-82 -70 -188 -111q-53 -23 -114.5 -32t-129.5 -9 q-164 0 -288 62q-125 55 -213 163q-82 104 -129 244q-43 141 -43 297zM106 731q0 -80 11.5 -152.5t34.5 -140.5q47 -133 124 -229q41 -47 90.5 -85t108.5 -65q117 -55 264 -55q121 0 219 37q49 16 92.5 42t84.5 58l-1022 703q-6 -55 -7 -113zM119 887l1044 -719 q100 98 154 240q53 139 57 323q-2 78 -13 151.5t-34 139.5q-45 137 -125 229q-78 94 -196 152q-117 55 -267 55q-147 0 -264 -55q-119 -55 -199 -152q-78 -92 -124 -229q-10 -33 -18.5 -66.5t-14.5 -68.5z" />
<glyph unicode="R" horiz-adv-x="1251" d="M111 0v1466h594q209 0 327 -102q117 -98 117 -299q0 -100 -35 -172q-33 -70 -96 -125q-59 -47 -146 -76q-78 -23 -165 -24l462 -668h-45l-972 1389v-1389h-41zM178 1425l500 -716h27q82 0 159 22q76 25 129 70q53 47 84 112q31 63 31 152q0 174 -98 266q-104 94 -305 94 h-527z" />
<glyph unicode="S" horiz-adv-x="1251" d="M70 485h41q0 -137 39 -223q35 -90 108 -149q68 -57 170 -82q92 -27 213 -27q90 0 172 21q86 18 154 61q70 45 108 111q43 68 43 161q0 111 -49 177q-47 66 -123 102q-72 39 -166 57q-16 4 -34.5 8.5t-34.5 8.5l55 26q23 -6 43 -12t43 -10q88 -25 160 -66q67 -42 106 -108 q41 -70 41 -185q0 -100 -45 -178q-47 -76 -119 -121q-76 -51 -168 -71q-88 -20 -186 -21q-121 0 -229 29q-109 27 -185 92q-76 59 -118 160q-39 97 -39 226v13zM113 1120q0 111 45 183q41 70 116 114q68 43 162 64q88 18 176 18q109 0 201 -24q94 -25 160 -76 q68 -49 110 -137q41 -88 47 -209h-40q-4 57 -13.5 104t-29.5 86q-18 39 -44 69.5t-57 55.5q-59 47 -149 70q-43 10 -89 15t-96 5q-70 0 -157 -16q-82 -14 -150 -56q-66 -37 -108 -102q-43 -66 -43 -164q0 -100 43 -157q49 -61 114 -97q37 -18 77 -32.5t85 -24.5 q29 -6 58.5 -13.5t58.5 -13.5l-55 -30q-29 6 -54.5 12t-52.5 14q-90 21 -160 62q-68 37 -112 106q-43 68 -43 174z" />
<glyph unicode="T" horiz-adv-x="1024" d="M-35 1303v40h527v82h-527v41h1094v-41h-527v-82h529v-40h-529v-1303h-40v1303h-527z" />
<glyph unicode="U" horiz-adv-x="1294" d="M109 545v919h41v-893l858 -446q4 4 7 8t7 8q121 135 121 404v919h41v-919q0 -299 -137 -439q-135 -141 -400 -141q-264 0 -401 141q-137 143 -137 439zM150 522q5 -248 120 -381q123 -137 377 -137q211 0 330 94z" />
<glyph unicode="V" horiz-adv-x="1101" d="M-35 1466h39l553 -1413h4l62 158l-492 1255h39l473 -1202l457 1202h41l-559 -1466h-45z" />
<glyph unicode="W" horiz-adv-x="1781" d="M-18 1464h38l555 -1411h5l297 783l-246 628h39l227 -577l219 579h41l-239 -632l307 -781h4l536 1413h41l-557 -1466h-45l-307 782l-297 -782h-45z" />
<glyph unicode="X" horiz-adv-x="1064" d="M-55 0l561 754l-531 712h52l505 -680l512 680h52l-535 -712l559 -754h-45h-6h-1073h-6h-45zM27 41h1011l-506 680z" />
<glyph unicode="Y" horiz-adv-x="1101" d="M-63 1466h51l559 -802l565 802h49l-1020 -1466h-61l442 627z" />
<glyph unicode="Z" horiz-adv-x="1024" d="M-39 0v55l873 1370h-818v41h1008v-57l-874 -1368h890v-41h-1079zM0 41h100l883 1384h-100z" />
<glyph unicode="\" horiz-adv-x="681" d="M-14 1497h41l305 -698l-53 28zM352 659l51 -26l291 -668h-39z" />
<glyph unicode="^" horiz-adv-x="1228" d="M121 465l473 928h41l473 -928h-41l-453 887l-452 -887h-41z" />
<glyph unicode="`" horiz-adv-x="266" d="M-78 1497h60l256 -295h-31z" />
<glyph unicode="a" d="M-25 0l592 1464h54l579 -1464h-45l-940 481l-195 -481h-45zM231 522l899 -469l-534 1370h-4z" />
<glyph unicode="b" horiz-adv-x="1251" d="M96 0v1464h631q43 0 83 -5t77 -17q76 -20 131 -68q29 -23 51.5 -51.5t38.5 -62.5q31 -68 31 -160q0 -63 -23 -125q-25 -59 -65 -105q-41 -47 -99 -73q-55 -29 -123 -31v-4q68 -2 136 -29q63 -25 114 -71q23 -23 42.5 -50.5t33.5 -62.5q29 -70 29 -152q0 -94 -35 -174 q-37 -76 -100 -123q-61 -47 -154 -75q-90 -25 -193 -25h-606zM137 41h584q92 0 166 20q76 20 133 66q55 43 90 111q33 66 33 157q0 96 -35 162t-96 107q-29 23 -61.5 37t-71.5 24q-74 18 -152 18l-590 301v-1003zM137 1085l590 -301q74 0 139 19q63 18 119 59q51 39 82 101 q31 57 31 137q0 82 -29 145q-29 61 -80 101q-45 37 -117 59q-68 18 -145 18h-590v-338z" />
<glyph unicode="c" horiz-adv-x="1402" d="M49 719q0 66 10.5 133.5t28.5 136.5q37 135 121 252q80 113 213 184q125 72 317 72q143 0 254 -47q55 -25 100.5 -55.5t82.5 -65.5q74 -74 110 -155q35 -80 39 -150h-41q-6 76 -47 156q-41 78 -113 139q-70 59 -168 100q-98 37 -217 37q-178 0 -305 -72 q-125 -76 -198 -182q-78 -111 -111 -239q-35 -133 -35 -244q0 -78 12 -148l928 -483q29 16 52.5 35.5t45.5 42.5q76 76 125 180q45 100 64 225h41q-10 -66 -27.5 -127t-42.5 -116q-51 -111 -133 -193t-192 -125q-109 -45 -250 -45q-145 0 -269 55q-59 29 -112 68t-96 88 q-43 51 -78 110.5t-60 129.5q-49 137 -49 303zM113 516l18 -67q23 -66 52.5 -122.5t70.5 -105.5q80 -98 195 -158q113 -59 264 -59q131 0 235 43l43 19z" />
<glyph unicode="d" horiz-adv-x="1327" d="M111 0v1464h512q115 0 221 -32q111 -33 200 -117q47 -41 83 -97t65 -128q55 -141 55 -357q0 -199 -57 -338q-59 -139 -154 -227q-96 -88 -219 -127q-61 -23 -125.5 -32t-132.5 -9h-448zM152 41h417q127 0 246 41q115 43 203 127q86 84 139 217q47 123 49 287h-1054v-672z M152 754h1054q-4 195 -51 317q-53 133 -135 213q-84 78 -191 109q-101 30 -210 30h-7h-460v-669z" />
<glyph unicode="e" horiz-adv-x="1099" d="M111 0v1464h972v-41h-931v-579h876v-41h-876v-19v-41v-63h876v-41h-876v-598h940v-41h-981z" />
<glyph unicode="f" horiz-adv-x="985" d="M111 0v1464h903v-41h-862v-579h780v-41h-780v-19v-41v-63h780v-41h-780v-639h-41z" />
<glyph unicode="g" horiz-adv-x="1478" d="M66 731q0 80 11 155t36 146q47 139 135 244q86 100 215 164q131 59 289 59q63 0 118.5 -9t108.5 -26q109 -39 182 -100q80 -63 131 -156q49 -90 68 -202h-41q-18 102 -68 186q-45 82 -121 141q-70 59 -167 92q-47 16 -99.5 24.5t-111.5 8.5q-78 0 -145.5 -14t-127.5 -43 q-117 -57 -205 -158q-82 -96 -124 -229q-43 -133 -44 -283q0 -76 9.5 -146.5t31.5 -135.5q41 -133 123 -232q82 -98 205 -156q59 -29 131 -43t152 -14q121 0 229 43q109 41 184 117q78 72 125 178q45 102 45 225v6h-567v41h567v117h-567v41h567h41v-41v-117v-96v-520h-41 v362h-4q-59 -186 -213 -290t-372 -105q-168 0 -297 62q-127 57 -215 163q-84 98 -131 244q-43 137 -43 297z" />
<glyph unicode="h" horiz-adv-x="1327" d="M111 0v1464h41v-620h1028v620h41v-1464h-41v639h-1028v-639h-41zM152 680h1028v123h-1028v-123z" />
<glyph unicode="i" horiz-adv-x="262" d="M111 0v659l41 21v-680h-41zM111 780v684h41v-661z" />
<glyph unicode="j" horiz-adv-x="948" d="M35 362v89h41v-89q0 -158 67 -243l643 336v1007h41v-1083q0 -94 -20 -168q-20 -72 -70 -131q-45 -53 -125 -86q-80 -29 -186 -29q-104 0 -180 29q-74 31 -121 84q-45 51 -68 125q-22 75 -22 152v7zM168 90q88 -86 258 -86q43 0 82 5t72 16q66 18 112 67q47 47 70 125 q24 73 24 180v9z" />
<glyph unicode="k" horiz-adv-x="1214" d="M111 0v1464h41l407 -532l608 532h64l-645 -565l686 -899h-55l-664 870l-401 -352v-518h-41zM152 573l376 330l-376 494v-824z" />
<glyph unicode="l" horiz-adv-x="985" d="M111 0v164v41v1259h41v-1259h858v-41h-858v-123h856v-41h-897z" />
<glyph unicode="m" horiz-adv-x="1597" d="M109 0v1466h69l621 -1185l622 1185h68v-1466h-41v1415h-4l-623 -1177l125 -238h-45l-102 195l-103 -195h-45l125 238l-620 1177h-4v-1415h-43z" />
<glyph unicode="n" horiz-adv-x="1327" d="M111 0v1466h41l1026 -1155v1155h41v-1466h-41l-1026 1155v-1155h-41zM152 1217l1026 -1156v187l-1026 1155v-186z" />
<glyph unicode="o" horiz-adv-x="1476" d="M66 731q0 156 43 295q45 137 129 244q84 102 213 168q125 61 288 61q164 0 291 -61q63 -33 116.5 -74t94.5 -94q86 -105 131 -244q43 -139 43 -295t-43 -297q-47 -141 -131 -244q-84 -104 -211 -163q-127 -61 -291 -62q-164 0 -288 62q-127 59 -213 163q-82 104 -129 244 q-43 141 -43 297zM106 707q6 -150 46 -269q47 -133 124 -229q41 -47 90.5 -85t108.5 -65q117 -55 264 -55q150 0 267 55q115 51 196 150q82 96 125 229q23 61 33 129t14 140h-1268zM106 748h1268q-2 145 -47 274q-45 137 -125 229q-78 94 -196 152q-117 55 -267 55 q-147 0 -264 -55q-119 -55 -199 -152q-77 -92 -124 -229q-20 -63 -31.5 -132t-14.5 -142z" />
<glyph unicode="p" horiz-adv-x="1175" d="M111 0v1466h594q209 0 327 -102q117 -98 117 -299q0 -100 -35 -172q-33 -70 -96 -125q-59 -47 -146 -76q-83 -24 -180 -24h-8l-532 274v-942h-41zM152 991l553 -282q82 0 159 22q76 25 129 70q29 23 48.5 51.5t35.5 60.5q31 63 31 152q0 174 -98 266q-104 94 -305 94 h-553v-434z" />
<glyph unicode="q" horiz-adv-x="1476" d="M66 731q0 156 43 295q45 137 129 244q86 104 213 168q125 61 288 61q164 0 291 -61q63 -33 116.5 -74t94.5 -94q86 -104 131 -244q43 -139 43 -295q0 -172 -53 -328q-51 -152 -164 -260l236 -159l-21 -29l-242 162q-82 -70 -188 -111q-53 -23 -114.5 -32t-129.5 -9 q-164 0 -288 62q-125 55 -213 163q-82 104 -129 244q-43 141 -43 297zM106 731q0 -80 11.5 -152.5t34.5 -140.5q47 -133 124 -229q41 -47 90.5 -85t108.5 -65q117 -55 264 -55q121 0 219 37q49 16 92.5 42t84.5 58l-1022 703q-6 -55 -7 -113zM119 887l1044 -719 q100 98 154 240q53 139 57 323q-2 78 -13 151.5t-34 139.5q-45 137 -125 229q-78 94 -196 152q-117 55 -267 55q-147 0 -264 -55q-119 -55 -199 -152q-78 -92 -124 -229q-10 -33 -18.5 -66.5t-14.5 -68.5z" />
<glyph unicode="r" horiz-adv-x="1251" d="M111 0v1466h594q209 0 327 -102q117 -98 117 -299q0 -100 -35 -172q-33 -70 -96 -125q-59 -47 -146 -76q-78 -23 -165 -24l462 -668h-45l-972 1389v-1389h-41zM178 1425l500 -716h27q82 0 159 22q76 25 129 70q53 47 84 112q31 63 31 152q0 174 -98 266q-104 94 -305 94 h-527z" />
<glyph unicode="s" horiz-adv-x="1251" d="M70 485h41q0 -137 39 -223q35 -90 108 -149q68 -57 170 -82q92 -27 213 -27q90 0 172 21q86 18 154 61q70 45 108 111q43 68 43 161q0 111 -49 177q-47 66 -123 102q-72 39 -166 57q-16 4 -34.5 8.5t-34.5 8.5l55 26q23 -6 43 -12t43 -10q88 -25 160 -66q67 -42 106 -108 q41 -70 41 -185q0 -100 -45 -178q-47 -76 -119 -121q-76 -51 -168 -71q-88 -20 -186 -21q-121 0 -229 29q-109 27 -185 92q-76 59 -118 160q-39 97 -39 226v13zM113 1120q0 111 45 183q41 70 116 114q68 43 162 64q88 18 176 18q109 0 201 -24q94 -25 160 -76 q68 -49 110 -137q41 -88 47 -209h-40q-4 57 -13.5 104t-29.5 86q-18 39 -44 69.5t-57 55.5q-59 47 -149 70q-43 10 -89 15t-96 5q-70 0 -157 -16q-82 -14 -150 -56q-66 -37 -108 -102q-43 -66 -43 -164q0 -100 43 -157q49 -61 114 -97q37 -18 77 -32.5t85 -24.5 q29 -6 58.5 -13.5t58.5 -13.5l-55 -30q-29 6 -54.5 12t-52.5 14q-90 21 -160 62q-68 37 -112 106q-43 68 -43 174z" />
<glyph unicode="t" horiz-adv-x="1024" d="M-35 1303v40h527v82h-527v41h1094v-41h-527v-82h529v-40h-529v-1303h-40v1303h-527z" />
<glyph unicode="u" horiz-adv-x="1294" d="M109 545v919h41v-893l858 -446q4 4 7 8t7 8q121 135 121 404v919h41v-919q0 -299 -137 -439q-135 -141 -400 -141q-264 0 -401 141q-137 143 -137 439zM150 522q5 -248 120 -381q123 -137 377 -137q211 0 330 94z" />
<glyph unicode="v" horiz-adv-x="1101" d="M-35 1466h39l553 -1413h4l62 158l-492 1255h39l473 -1202l457 1202h41l-559 -1466h-45z" />
<glyph unicode="w" horiz-adv-x="1781" d="M-18 1464h38l555 -1411h5l297 783l-246 628h39l227 -577l219 579h41l-239 -632l307 -781h4l536 1413h41l-557 -1466h-45l-307 782l-297 -782h-45z" />
<glyph unicode="x" horiz-adv-x="1064" d="M-55 0l561 754l-531 712h52l505 -680l512 680h52l-535 -712l559 -754h-45h-6h-1073h-6h-45zM27 41h1011l-506 680z" />
<glyph unicode="y" horiz-adv-x="1101" d="M-63 1466h51l559 -802l565 802h49l-1020 -1466h-61l442 627z" />
<glyph unicode="z" horiz-adv-x="1024" d="M-39 0v55l873 1370h-818v41h1008v-57l-874 -1368h890v-41h-1079zM0 41h100l883 1384h-100z" />
<glyph unicode="~" horiz-adv-x="1228" d="M158 432q39 72 97 125t144 53q55 4 118 -18.5t122 -50.5q61 -27 115.5 -49.5t95.5 -22.5q31 0 56.5 13.5t47 34t40 47t36.5 52.5l41 -12q-20 -33 -42.5 -64.5t-49.5 -56t-59.5 -40t-71.5 -15.5q-51 0 -98.5 21.5t-100.5 44.5q-53 25 -111.5 50t-138.5 25 q-70 0 -116.5 -42t-83.5 -107z" />
<glyph unicode="&#xa1;" horiz-adv-x="378" d="M131 989v121h121v-121h-121zM170 115l41 20v-489h-41v469zM170 250v487h41v-467z" />
<glyph unicode="&#xa8;" horiz-adv-x="266" d="M-47 1208v166h41v-166h-41zM272 1208v166h41v-166h-41z" />
<glyph unicode="&#xad;" horiz-adv-x="681" d="M162 528v41h358v-41h-358z" />
<glyph unicode="&#xb4;" horiz-adv-x="266" d="M20 1202l271 295h59l-299 -295h-31z" />
<glyph unicode="&#xbf;" horiz-adv-x="1024" d="M102 -49q0 76 23 137q23 59 53 102q29 41 66 74q18 16 32.5 29.5t26.5 23.5l52.5 52.5t41.5 46.5q37 39 64 90q23 49 35 102q4 29 7 60.5t3 68.5h41q0 -35 -2 -65.5t-8 -59.5q-4 -29 -12.5 -55.5t-20.5 -50.5q-23 -53 -62 -100q-35 -45 -96 -105q-12 -12 -45 -39 q-16 -12 -33.5 -29.5t-34.5 -39.5q-37 -43 -59 -95l633 -329l6 6q51 57 76 141q27 88 20 182h41q6 -109 -24 -198q-29 -90 -86 -154q-29 -33 -65 -57.5t-77 -42.5q-82 -35 -192 -35q-41 0 -81 5t-77 17q-74 20 -127 66q-55 43 -86 106q-33 59 -33 146zM143 -49 q0 -68 29 -129q27 -55 76 -94t114 -58q63 -18 144 -18q104 0 178 33q55 23 94 55l-618 317q-16 -53 -17 -106zM467 989v121h121v-121h-121z" />
<glyph unicode="&#xc0;" d="M-25 0l592 1464h54l579 -1464h-45l-940 481l-195 -481h-45zM231 522l899 -469l-534 1370h-4zM379 1862h59l256 -295h-30z" />
<glyph unicode="&#xc1;" d="M-25 0l592 1464h54l579 -1464h-45l-940 481l-195 -481h-45zM231 522l899 -469l-534 1370h-4zM477 1567l271 295h59l-299 -295h-31z" />
<glyph unicode="&#xc2;" d="M-25 0l592 1464h54l579 -1464h-45l-940 481l-195 -481h-45zM231 522l899 -469l-534 1370h-4zM342 1577l231 285h31l234 -285h-41l-211 252l-203 -252h-41z" />
<glyph unicode="&#xc3;" d="M-25 0l592 1464h54l579 -1464h-45l-940 481l-195 -481h-45zM231 522l899 -469l-534 1370h-4zM319 1597q0 29 11.5 57.5t31 52.5t45 38t52.5 14q35 0 68.5 -18.5t66.5 -41t63.5 -41t61.5 -18.5q47 0 73.5 35t26.5 78h41q0 -59 -34.5 -106.5t-106.5 -47.5q-39 0 -72 18.5 t-63.5 41t-61 41t-63.5 18.5q-23 0 -40.5 -11t-30.5 -29.5t-20.5 -40t-7.5 -40.5h-41z" />
<glyph unicode="&#xc4;" d="M-25 0l592 1464h54l579 -1464h-45l-940 481l-195 -481h-45zM231 522l899 -469l-534 1370h-4zM410 1573v166h41v-166h-41zM729 1573v166h41v-166h-41z" />
<glyph unicode="&#xc5;" d="M-25 0l592 1464h54l579 -1464h-45l-940 481l-195 -481h-45zM231 522l899 -469l-534 1370h-4zM410 1688q0 37 14 69.5t38.5 57t57.5 39t70 14.5t69.5 -14.5t57 -39t39 -57t14.5 -69.5t-14.5 -70t-39 -57.5t-57 -39t-69.5 -14.5t-70 14.5t-57.5 39t-38.5 57.5t-14 70z M451 1688q0 -57 40.5 -98.5t98.5 -41.5q57 0 98 41.5t41 98.5t-41 98t-98 41t-98 -41t-41 -98z" />
<glyph unicode="&#xc7;" horiz-adv-x="1402" d="M49 719q0 66 10.5 133.5t28.5 136.5q37 135 121 252q80 113 213 184q125 72 317 72q143 0 254 -47q55 -25 100.5 -55.5t82.5 -65.5q74 -74 110 -155q35 -80 39 -150h-41q-6 76 -47 156q-41 78 -113 139q-70 59 -168 100q-98 37 -217 37q-178 0 -305 -72 q-125 -76 -198 -182q-78 -111 -111 -239q-35 -133 -35 -244q0 -78 12 -148l928 -483q29 16 52.5 35.5t45.5 42.5q76 76 125 180q45 100 64 225h41q-10 -66 -27.5 -127t-42.5 -116q-51 -111 -133 -193t-192 -125q-104 -41 -240 -45l-59 -80q14 2 26 7.5t41 5.5 q59 0 106.5 -28t47.5 -95q0 -45 -16.5 -74t-44 -46t-64.5 -23.5t-76 -6.5q-53 0 -96 12.5t-72 22.5l19 39q35 -12 71.5 -22.5t77.5 -10.5q29 0 57.5 5t51 17.5t37 34t14.5 52.5q0 20 -12.5 36.5t-29 25.5t-37 14.5t-34.5 5.5q-66 0 -110 -27l-31 20l88 117q-131 6 -234 53 q-59 29 -112 68t-96 88q-43 51 -78 110.5t-60 129.5q-49 137 -49 303zM113 516l18 -67q23 -66 52.5 -122.5t70.5 -105.5q80 -98 195 -158q113 -59 264 -59q131 0 235 43l43 19z" />
<glyph unicode="&#xc8;" horiz-adv-x="1099" d="M111 0v1464h972v-41h-931v-579h876v-41h-876v-19v-41v-63h876v-41h-876v-598h940v-41h-981zM340 1862h59l256 -295h-30z" />
<glyph unicode="&#xc9;" horiz-adv-x="1099" d="M111 0v1464h972v-41h-931v-579h876v-41h-876v-19v-41v-63h876v-41h-876v-598h940v-41h-981zM438 1567l271 295h59l-299 -295h-31z" />
<glyph unicode="&#xca;" horiz-adv-x="1099" d="M111 0v1464h972v-41h-931v-579h876v-41h-876v-19v-41v-63h876v-41h-876v-598h940v-41h-981zM303 1577l232 285h30l234 -285h-41l-211 252l-203 -252h-41z" />
<glyph unicode="&#xcb;" horiz-adv-x="1099" d="M111 0v1464h972v-41h-931v-579h876v-41h-876v-19v-41v-63h876v-41h-876v-598h940v-41h-981zM371 1573v166h41v-166h-41zM690 1573v166h41v-166h-41z" />
<glyph unicode="&#xcc;" horiz-adv-x="262" d="M-80 1862h60l256 -295h-31zM111 0v659l41 21v-680h-41zM111 780v684h41v-661z" />
<glyph unicode="&#xcd;" horiz-adv-x="262" d="M18 1567l271 295h59l-299 -295h-31zM111 0v659l41 21v-680h-41zM111 780v684h41v-661z" />
<glyph unicode="&#xce;" horiz-adv-x="262" d="M-117 1577l232 285h30l234 -285h-41l-211 252l-203 -252h-41zM111 0v659l41 21v-680h-41zM111 780v684h41v-661z" />
<glyph unicode="&#xcf;" horiz-adv-x="262" d="M-49 1573v166h41v-166h-41zM111 0v659l41 21v-680h-41zM111 780v684h41v-661zM270 1573v166h41v-166h-41z" />
<glyph unicode="&#xd1;" horiz-adv-x="1327" d="M111 0v1466h41l1026 -1155v1155h41v-1466h-41l-1026 1155v-1155h-41zM152 1217l1026 -1156v187l-1026 1155v-186zM393 1597q0 29 11.5 57.5t31 52.5t45 38t51.5 14q35 0 69 -18.5t66.5 -41t63.5 -41t62 -18.5q47 0 73.5 35t26.5 78h41q0 -59 -35 -106.5t-106 -47.5 q-39 0 -72 18.5t-63.5 41t-61.5 41t-64 18.5q-23 0 -40 -11t-30 -29.5t-20.5 -40t-7.5 -40.5h-41z" />
<glyph unicode="&#xd2;" horiz-adv-x="1476" d="M66 731q0 156 43 295q45 137 129 244q84 102 213 168q125 61 288 61q164 0 291 -61q63 -33 116.5 -74t94.5 -94q86 -105 131 -244q43 -139 43 -295t-43 -297q-47 -141 -131 -244q-84 -104 -211 -163q-127 -61 -291 -62q-164 0 -288 62q-127 59 -213 163q-82 104 -129 244 q-43 141 -43 297zM106 707q6 -150 46 -269q47 -133 124 -229q41 -47 90.5 -85t108.5 -65q117 -55 264 -55q150 0 267 55q115 51 196 150q82 96 125 229q23 61 33 129t14 140h-1268zM106 748h1268q-2 145 -47 274q-45 137 -125 229q-78 94 -196 152q-117 55 -267 55 q-147 0 -264 -55q-119 -55 -199 -152q-77 -92 -124 -229q-20 -63 -31.5 -132t-14.5 -142zM528 1862h60l256 -295h-31z" />
<glyph unicode="&#xd3;" horiz-adv-x="1476" d="M66 731q0 156 43 295q45 137 129 244q84 102 213 168q125 61 288 61q164 0 291 -61q63 -33 116.5 -74t94.5 -94q86 -105 131 -244q43 -139 43 -295t-43 -297q-47 -141 -131 -244q-84 -104 -211 -163q-127 -61 -291 -62q-164 0 -288 62q-127 59 -213 163q-82 104 -129 244 q-43 141 -43 297zM106 707q6 -150 46 -269q47 -133 124 -229q41 -47 90.5 -85t108.5 -65q117 -55 264 -55q150 0 267 55q115 51 196 150q82 96 125 229q23 61 33 129t14 140h-1268zM106 748h1268q-2 145 -47 274q-45 137 -125 229q-78 94 -196 152q-117 55 -267 55 q-147 0 -264 -55q-119 -55 -199 -152q-77 -92 -124 -229q-20 -63 -31.5 -132t-14.5 -142zM627 1567l270 295h59l-299 -295h-30z" />
<glyph unicode="&#xd4;" horiz-adv-x="1476" d="M66 731q0 156 43 295q45 137 129 244q84 102 213 168q125 61 288 61q164 0 291 -61q63 -33 116.5 -74t94.5 -94q86 -105 131 -244q43 -139 43 -295t-43 -297q-47 -141 -131 -244q-84 -104 -211 -163q-127 -61 -291 -62q-164 0 -288 62q-127 59 -213 163q-82 104 -129 244 q-43 141 -43 297zM106 707q6 -150 46 -269q47 -133 124 -229q41 -47 90.5 -85t108.5 -65q117 -55 264 -55q150 0 267 55q115 51 196 150q82 96 125 229q23 61 33 129t14 140h-1268zM106 748h1268q-2 145 -47 274q-45 137 -125 229q-78 94 -196 152q-117 55 -267 55 q-147 0 -264 -55q-119 -55 -199 -152q-77 -92 -124 -229q-20 -63 -31.5 -132t-14.5 -142zM492 1577l231 285h31l233 -285h-41l-211 252l-203 -252h-40z" />
<glyph unicode="&#xd5;" horiz-adv-x="1476" d="M66 731q0 156 43 295q45 137 129 244q84 102 213 168q125 61 288 61q164 0 291 -61q63 -33 116.5 -74t94.5 -94q86 -105 131 -244q43 -139 43 -295t-43 -297q-47 -141 -131 -244q-84 -104 -211 -163q-127 -61 -291 -62q-164 0 -288 62q-127 59 -213 163q-82 104 -129 244 q-43 141 -43 297zM106 707q6 -150 46 -269q47 -133 124 -229q41 -47 90.5 -85t108.5 -65q117 -55 264 -55q150 0 267 55q115 51 196 150q82 96 125 229q23 61 33 129t14 140h-1268zM106 748h1268q-2 145 -47 274q-45 137 -125 229q-78 94 -196 152q-117 55 -267 55 q-147 0 -264 -55q-119 -55 -199 -152q-77 -92 -124 -229q-20 -63 -31.5 -132t-14.5 -142zM469 1597q0 29 11.5 57.5t30.5 52.5t45 38t52 14q35 0 69 -18.5t66.5 -41t63.5 -41t61 -18.5q47 0 74 35t27 78h41q0 -59 -35 -106.5t-107 -47.5q-39 0 -71.5 18.5t-63.5 41t-61.5 41 t-63.5 18.5q-23 0 -40 -11t-30.5 -29.5t-20.5 -40t-7 -40.5h-41z" />
<glyph unicode="&#xd6;" horiz-adv-x="1476" d="M66 731q0 156 43 295q45 137 129 244q84 102 213 168q125 61 288 61q164 0 291 -61q63 -33 116.5 -74t94.5 -94q86 -105 131 -244q43 -139 43 -295t-43 -297q-47 -141 -131 -244q-84 -104 -211 -163q-127 -61 -291 -62q-164 0 -288 62q-127 59 -213 163q-82 104 -129 244 q-43 141 -43 297zM106 707q6 -150 46 -269q47 -133 124 -229q41 -47 90.5 -85t108.5 -65q117 -55 264 -55q150 0 267 55q115 51 196 150q82 96 125 229q23 61 33 129t14 140h-1268zM106 748h1268q-2 145 -47 274q-45 137 -125 229q-78 94 -196 152q-117 55 -267 55 q-147 0 -264 -55q-119 -55 -199 -152q-77 -92 -124 -229q-20 -63 -31.5 -132t-14.5 -142zM559 1573v166h41v-166h-41zM879 1573v166h41v-166h-41z" />
<glyph unicode="&#xd9;" horiz-adv-x="1294" d="M109 545v919h41v-893l858 -446q4 4 7 8t7 8q121 135 121 404v919h41v-919q0 -299 -137 -439q-135 -141 -400 -141q-264 0 -401 141q-137 143 -137 439zM150 522q5 -248 120 -381q123 -137 377 -137q211 0 330 94zM436 1862h60l256 -295h-31z" />
<glyph unicode="&#xda;" horiz-adv-x="1294" d="M109 545v919h41v-893l858 -446q4 4 7 8t7 8q121 135 121 404v919h41v-919q0 -299 -137 -439q-135 -141 -400 -141q-264 0 -401 141q-137 143 -137 439zM150 522q5 -248 120 -381q123 -137 377 -137q211 0 330 94zM535 1567l270 295h59l-299 -295h-30z" />
<glyph unicode="&#xdb;" horiz-adv-x="1294" d="M109 545v919h41v-893l858 -446q4 4 7 8t7 8q121 135 121 404v919h41v-919q0 -299 -137 -439q-135 -141 -400 -141q-264 0 -401 141q-137 143 -137 439zM150 522q5 -248 120 -381q123 -137 377 -137q211 0 330 94zM399 1577l232 285h31l233 -285h-41l-211 252l-203 -252 h-41z" />
<glyph unicode="&#xdc;" horiz-adv-x="1294" d="M109 545v919h41v-893l858 -446q4 4 7 8t7 8q121 135 121 404v919h41v-919q0 -299 -137 -439q-135 -141 -400 -141q-264 0 -401 141q-137 143 -137 439zM150 522q5 -248 120 -381q123 -137 377 -137q211 0 330 94zM467 1573v166h41v-166h-41zM786 1573v166h41v-166h-41z " />
<glyph unicode="&#xdd;" horiz-adv-x="1101" d="M-63 1466h51l559 -802l565 802h49l-1020 -1466h-61l442 627zM438 1612l271 295h59l-299 -295h-31z" />
<glyph unicode="&#xe0;" d="M-25 0l592 1464h54l579 -1464h-45l-940 481l-195 -481h-45zM231 522l899 -469l-534 1370h-4zM379 1862h59l256 -295h-30z" />
<glyph unicode="&#xe1;" d="M-25 0l592 1464h54l579 -1464h-45l-940 481l-195 -481h-45zM231 522l899 -469l-534 1370h-4zM477 1567l271 295h59l-299 -295h-31z" />
<glyph unicode="&#xe2;" d="M-25 0l592 1464h54l579 -1464h-45l-940 481l-195 -481h-45zM231 522l899 -469l-534 1370h-4zM342 1577l231 285h31l234 -285h-41l-211 252l-203 -252h-41z" />
<glyph unicode="&#xe3;" d="M-25 0l592 1464h54l579 -1464h-45l-940 481l-195 -481h-45zM231 522l899 -469l-534 1370h-4zM319 1597q0 29 11.5 57.5t31 52.5t45 38t52.5 14q35 0 68.5 -18.5t66.5 -41t63.5 -41t61.5 -18.5q47 0 73.5 35t26.5 78h41q0 -59 -34.5 -106.5t-106.5 -47.5q-39 0 -72 18.5 t-63.5 41t-61 41t-63.5 18.5q-23 0 -40.5 -11t-30.5 -29.5t-20.5 -40t-7.5 -40.5h-41z" />
<glyph unicode="&#xe4;" d="M-25 0l592 1464h54l579 -1464h-45l-940 481l-195 -481h-45zM231 522l899 -469l-534 1370h-4zM410 1573v166h41v-166h-41zM729 1573v166h41v-166h-41z" />
<glyph unicode="&#xe5;" d="M-25 0l592 1464h54l579 -1464h-45l-940 481l-195 -481h-45zM231 522l899 -469l-534 1370h-4zM410 1688q0 37 14 69.5t38.5 57t57.5 39t70 14.5t69.5 -14.5t57 -39t39 -57t14.5 -69.5t-14.5 -70t-39 -57.5t-57 -39t-69.5 -14.5t-70 14.5t-57.5 39t-38.5 57.5t-14 70z M451 1688q0 -57 40.5 -98.5t98.5 -41.5q57 0 98 41.5t41 98.5t-41 98t-98 41t-98 -41t-41 -98z" />
<glyph unicode="&#xe7;" horiz-adv-x="1402" d="M49 719q0 66 10.5 133.5t28.5 136.5q37 135 121 252q80 113 213 184q125 72 317 72q143 0 254 -47q55 -25 100.5 -55.5t82.5 -65.5q74 -74 110 -155q35 -80 39 -150h-41q-6 76 -47 156q-41 78 -113 139q-70 59 -168 100q-98 37 -217 37q-178 0 -305 -72 q-125 -76 -198 -182q-78 -111 -111 -239q-35 -133 -35 -244q0 -78 12 -148l928 -483q29 16 52.5 35.5t45.5 42.5q76 76 125 180q45 100 64 225h41q-10 -66 -27.5 -127t-42.5 -116q-51 -111 -133 -193t-192 -125q-104 -41 -240 -45l-59 -80q14 2 26 7.5t41 5.5 q59 0 106.5 -28t47.5 -95q0 -45 -16.5 -74t-44 -46t-64.5 -23.5t-76 -6.5q-53 0 -96 12.5t-72 22.5l19 39q35 -12 71.5 -22.5t77.5 -10.5q29 0 57.5 5t51 17.5t37 34t14.5 52.5q0 20 -12.5 36.5t-29 25.5t-37 14.5t-34.5 5.5q-66 0 -110 -27l-31 20l88 117q-131 6 -234 53 q-59 29 -112 68t-96 88q-43 51 -78 110.5t-60 129.5q-49 137 -49 303zM113 516l18 -67q23 -66 52.5 -122.5t70.5 -105.5q80 -98 195 -158q113 -59 264 -59q131 0 235 43l43 19z" />
<glyph unicode="&#xe8;" horiz-adv-x="1099" d="M111 0v1464h972v-41h-931v-579h876v-41h-876v-19v-41v-63h876v-41h-876v-598h940v-41h-981zM340 1862h59l256 -295h-30z" />
<glyph unicode="&#xe9;" horiz-adv-x="1099" d="M111 0v1464h972v-41h-931v-579h876v-41h-876v-19v-41v-63h876v-41h-876v-598h940v-41h-981zM438 1567l271 295h59l-299 -295h-31z" />
<glyph unicode="&#xea;" horiz-adv-x="1099" d="M111 0v1464h972v-41h-931v-579h876v-41h-876v-19v-41v-63h876v-41h-876v-598h940v-41h-981zM303 1577l232 285h30l234 -285h-41l-211 252l-203 -252h-41z" />
<glyph unicode="&#xeb;" horiz-adv-x="1099" d="M111 0v1464h972v-41h-931v-579h876v-41h-876v-19v-41v-63h876v-41h-876v-598h940v-41h-981zM371 1573v166h41v-166h-41zM690 1573v166h41v-166h-41z" />
<glyph unicode="&#xec;" horiz-adv-x="262" d="M-80 1862h60l256 -295h-31zM111 0v659l41 21v-680h-41zM111 780v684h41v-661z" />
<glyph unicode="&#xed;" horiz-adv-x="262" d="M18 1567l271 295h59l-299 -295h-31zM111 0v659l41 21v-680h-41zM111 780v684h41v-661z" />
<glyph unicode="&#xee;" horiz-adv-x="262" d="M-117 1577l232 285h30l234 -285h-41l-211 252l-203 -252h-41zM111 0v659l41 21v-680h-41zM111 780v684h41v-661z" />
<glyph unicode="&#xef;" horiz-adv-x="262" d="M-49 1573v166h41v-166h-41zM111 0v659l41 21v-680h-41zM111 780v684h41v-661zM270 1573v166h41v-166h-41z" />
<glyph unicode="&#xf1;" horiz-adv-x="1327" d="M111 0v1466h41l1026 -1155v1155h41v-1466h-41l-1026 1155v-1155h-41zM152 1217l1026 -1156v187l-1026 1155v-186zM393 1597q0 29 11.5 57.5t31 52.5t45 38t51.5 14q35 0 69 -18.5t66.5 -41t63.5 -41t62 -18.5q47 0 73.5 35t26.5 78h41q0 -59 -35 -106.5t-106 -47.5 q-39 0 -72 18.5t-63.5 41t-61.5 41t-64 18.5q-23 0 -40 -11t-30 -29.5t-20.5 -40t-7.5 -40.5h-41z" />
<glyph unicode="&#xf2;" horiz-adv-x="1476" d="M66 731q0 156 43 295q45 137 129 244q84 102 213 168q125 61 288 61q164 0 291 -61q63 -33 116.5 -74t94.5 -94q86 -105 131 -244q43 -139 43 -295t-43 -297q-47 -141 -131 -244q-84 -104 -211 -163q-127 -61 -291 -62q-164 0 -288 62q-127 59 -213 163q-82 104 -129 244 q-43 141 -43 297zM106 707q6 -150 46 -269q47 -133 124 -229q41 -47 90.5 -85t108.5 -65q117 -55 264 -55q150 0 267 55q115 51 196 150q82 96 125 229q23 61 33 129t14 140h-1268zM106 748h1268q-2 145 -47 274q-45 137 -125 229q-78 94 -196 152q-117 55 -267 55 q-147 0 -264 -55q-119 -55 -199 -152q-77 -92 -124 -229q-20 -63 -31.5 -132t-14.5 -142zM528 1862h60l256 -295h-31z" />
<glyph unicode="&#xf3;" horiz-adv-x="1476" d="M66 731q0 156 43 295q45 137 129 244q84 102 213 168q125 61 288 61q164 0 291 -61q63 -33 116.5 -74t94.5 -94q86 -105 131 -244q43 -139 43 -295t-43 -297q-47 -141 -131 -244q-84 -104 -211 -163q-127 -61 -291 -62q-164 0 -288 62q-127 59 -213 163q-82 104 -129 244 q-43 141 -43 297zM106 707q6 -150 46 -269q47 -133 124 -229q41 -47 90.5 -85t108.5 -65q117 -55 264 -55q150 0 267 55q115 51 196 150q82 96 125 229q23 61 33 129t14 140h-1268zM106 748h1268q-2 145 -47 274q-45 137 -125 229q-78 94 -196 152q-117 55 -267 55 q-147 0 -264 -55q-119 -55 -199 -152q-77 -92 -124 -229q-20 -63 -31.5 -132t-14.5 -142zM627 1567l270 295h59l-299 -295h-30z" />
<glyph unicode="&#xf4;" horiz-adv-x="1476" d="M66 731q0 156 43 295q45 137 129 244q84 102 213 168q125 61 288 61q164 0 291 -61q63 -33 116.5 -74t94.5 -94q86 -105 131 -244q43 -139 43 -295t-43 -297q-47 -141 -131 -244q-84 -104 -211 -163q-127 -61 -291 -62q-164 0 -288 62q-127 59 -213 163q-82 104 -129 244 q-43 141 -43 297zM106 707q6 -150 46 -269q47 -133 124 -229q41 -47 90.5 -85t108.5 -65q117 -55 264 -55q150 0 267 55q115 51 196 150q82 96 125 229q23 61 33 129t14 140h-1268zM106 748h1268q-2 145 -47 274q-45 137 -125 229q-78 94 -196 152q-117 55 -267 55 q-147 0 -264 -55q-119 -55 -199 -152q-77 -92 -124 -229q-20 -63 -31.5 -132t-14.5 -142zM492 1577l231 285h31l233 -285h-41l-211 252l-203 -252h-40z" />
<glyph unicode="&#xf5;" horiz-adv-x="1476" d="M66 731q0 156 43 295q45 137 129 244q84 102 213 168q125 61 288 61q164 0 291 -61q63 -33 116.5 -74t94.5 -94q86 -105 131 -244q43 -139 43 -295t-43 -297q-47 -141 -131 -244q-84 -104 -211 -163q-127 -61 -291 -62q-164 0 -288 62q-127 59 -213 163q-82 104 -129 244 q-43 141 -43 297zM106 707q6 -150 46 -269q47 -133 124 -229q41 -47 90.5 -85t108.5 -65q117 -55 264 -55q150 0 267 55q115 51 196 150q82 96 125 229q23 61 33 129t14 140h-1268zM106 748h1268q-2 145 -47 274q-45 137 -125 229q-78 94 -196 152q-117 55 -267 55 q-147 0 -264 -55q-119 -55 -199 -152q-77 -92 -124 -229q-20 -63 -31.5 -132t-14.5 -142zM469 1597q0 29 11.5 57.5t30.5 52.5t45 38t52 14q35 0 69 -18.5t66.5 -41t63.5 -41t61 -18.5q47 0 74 35t27 78h41q0 -59 -35 -106.5t-107 -47.5q-39 0 -71.5 18.5t-63.5 41t-61.5 41 t-63.5 18.5q-23 0 -40 -11t-30.5 -29.5t-20.5 -40t-7 -40.5h-41z" />
<glyph unicode="&#xf6;" horiz-adv-x="1476" d="M66 731q0 156 43 295q45 137 129 244q84 102 213 168q125 61 288 61q164 0 291 -61q63 -33 116.5 -74t94.5 -94q86 -105 131 -244q43 -139 43 -295t-43 -297q-47 -141 -131 -244q-84 -104 -211 -163q-127 -61 -291 -62q-164 0 -288 62q-127 59 -213 163q-82 104 -129 244 q-43 141 -43 297zM106 707q6 -150 46 -269q47 -133 124 -229q41 -47 90.5 -85t108.5 -65q117 -55 264 -55q150 0 267 55q115 51 196 150q82 96 125 229q23 61 33 129t14 140h-1268zM106 748h1268q-2 145 -47 274q-45 137 -125 229q-78 94 -196 152q-117 55 -267 55 q-147 0 -264 -55q-119 -55 -199 -152q-77 -92 -124 -229q-20 -63 -31.5 -132t-14.5 -142zM559 1573v166h41v-166h-41zM879 1573v166h41v-166h-41z" />
<glyph unicode="&#xf9;" horiz-adv-x="1294" d="M109 545v919h41v-893l858 -446q4 4 7 8t7 8q121 135 121 404v919h41v-919q0 -299 -137 -439q-135 -141 -400 -141q-264 0 -401 141q-137 143 -137 439zM150 522q5 -248 120 -381q123 -137 377 -137q211 0 330 94zM436 1862h60l256 -295h-31z" />
<glyph unicode="&#xfa;" horiz-adv-x="1294" d="M109 545v919h41v-893l858 -446q4 4 7 8t7 8q121 135 121 404v919h41v-919q0 -299 -137 -439q-135 -141 -400 -141q-264 0 -401 141q-137 143 -137 439zM150 522q5 -248 120 -381q123 -137 377 -137q211 0 330 94zM535 1567l270 295h59l-299 -295h-30z" />
<glyph unicode="&#xfb;" horiz-adv-x="1294" d="M109 545v919h41v-893l858 -446q4 4 7 8t7 8q121 135 121 404v919h41v-919q0 -299 -137 -439q-135 -141 -400 -141q-264 0 -401 141q-137 143 -137 439zM150 522q5 -248 120 -381q123 -137 377 -137q211 0 330 94zM399 1577l232 285h31l233 -285h-41l-211 252l-203 -252 h-41z" />
<glyph unicode="&#xfc;" horiz-adv-x="1294" d="M109 545v919h41v-893l858 -446q4 4 7 8t7 8q121 135 121 404v919h41v-919q0 -299 -137 -439q-135 -141 -400 -141q-264 0 -401 141q-137 143 -137 439zM150 522q5 -248 120 -381q123 -137 377 -137q211 0 330 94zM467 1573v166h41v-166h-41zM786 1573v166h41v-166h-41z " />
<glyph unicode="&#xfd;" horiz-adv-x="1101" d="M-63 1466h51l559 -802l565 802h49l-1020 -1466h-61l442 627zM438 1612l271 295h59l-299 -295h-31z" />
<glyph unicode="&#xff;" horiz-adv-x="1101" d="M-63 1466h51l559 -802l565 802h49l-1020 -1466h-61l442 627zM371 1573v166h41v-166h-41zM690 1573v166h41v-166h-41z" />
<glyph unicode="&#x178;" horiz-adv-x="1101" d="M-63 1466h51l559 -802l565 802h49l-1020 -1466h-61l442 627zM371 1573v166h41v-166h-41zM690 1573v166h41v-166h-41z" />
<glyph unicode="&#x2000;" horiz-adv-x="953" />
<glyph unicode="&#x2001;" horiz-adv-x="1907" />
<glyph unicode="&#x2002;" horiz-adv-x="953" />
<glyph unicode="&#x2003;" horiz-adv-x="1907" />
<glyph unicode="&#x2004;" horiz-adv-x="635" />
<glyph unicode="&#x2005;" horiz-adv-x="476" />
<glyph unicode="&#x2006;" horiz-adv-x="317" />
<glyph unicode="&#x2007;" horiz-adv-x="317" />
<glyph unicode="&#x2008;" horiz-adv-x="238" />
<glyph unicode="&#x2009;" horiz-adv-x="381" />
<glyph unicode="&#x200a;" horiz-adv-x="105" />
<glyph unicode="&#x2010;" horiz-adv-x="681" d="M162 528v41h31h104l-78 -41h-26h-31zM391 528l80 41h6h43v-41h-43h-86z" />
<glyph unicode="&#x2011;" horiz-adv-x="681" d="M162 528v41h31h104l-78 -41h-26h-31zM391 528l80 41h6h43v-41h-43h-86z" />
<glyph unicode="&#x2012;" horiz-adv-x="681" d="M162 528v41h31h104l-78 -41h-26h-31zM391 528l80 41h6h43v-41h-43h-86z" />
<glyph unicode="&#x2013;" horiz-adv-x="1347" d="M162 528v41h89h297l-223 -41h-74h-89zM817 528l229 41h17h123v-41h-123h-246z" />
<glyph unicode="&#x2014;" horiz-adv-x="2371" d="M162 528v41h177h595l-446 -41h-149h-177zM1472 528l458 41h34h246v-41h-246h-492z" />
<glyph unicode="&#x202f;" horiz-adv-x="381" />
<glyph unicode="&#x205f;" horiz-adv-x="476" />
<glyph unicode="&#x25fc;" horiz-adv-x="1464" d="M0 0v1464h1464v-1464h-1464z" />
</font>
</defs>
</svg>
